<?xml version="1.0" encoding="utf-8"?>
<!-- Generator: Adobe Illustrator 27.5.0, SVG Export Plug-In . SVG Version: 6.00 Build 0)  -->
<svg version="1.1" id="Layer_1" xmlns="http://www.w3.org/2000/svg" xmlns:xlink="http://www.w3.org/1999/xlink" x="0px" y="0px"
	 viewBox="0 0 500 500" style="enable-background:new 0 0 500 500;" xml:space="preserve">
<style type="text/css">
	.st0{fill:#50AAFA;stroke:#000000;stroke-width:20;stroke-miterlimit:10;}
	.st1{stroke:#000000;stroke-width:4;stroke-miterlimit:10;}
	.st2{fill:#50AAFA;}
	.st3{fill:none;stroke:#000000;stroke-width:20;stroke-miterlimit:10;}
</style>
<circle class="st0" cx="249.89" cy="250.11" r="239.84"/>
<circle class="st1" cx="315.63" cy="167.57" r="66.07"/>
<g>
	<g>
		<path d="M288.4,226.87c-3.89,13.36-7.78,26.71-11.67,40.07c-1.08,3.7-0.43,8.25,1.51,11.56c1.82,3.11,5.39,6.08,8.96,6.89
			c3.84,0.87,8.15,0.69,11.56-1.51c3.32-2.14,5.77-5.12,6.89-8.96c3.89-13.36,7.78-26.71,11.67-40.07c1.08-3.7,0.43-8.25-1.51-11.56
			c-1.82-3.11-5.39-6.08-8.96-6.89c-3.84-0.87-8.15-0.69-11.56,1.51C291.98,220.04,289.52,223.02,288.4,226.87L288.4,226.87z"/>
	</g>
</g>
<g>
	<g>
		<path d="M347.2,225.66c4.93,6.37,10.55,12.17,16.76,17.3c1.36,1.46,2.97,2.5,4.83,3.1c1.79,0.94,3.71,1.37,5.78,1.29
			c2.07,0.08,3.99-0.35,5.78-1.29c1.86-0.6,3.47-1.64,4.83-3.1c2.62-2.86,4.57-6.61,4.39-10.61c-0.18-1.33-0.36-2.66-0.54-3.99
			c-0.71-2.54-2-4.75-3.86-6.62c-6.21-5.13-11.83-10.93-16.76-17.3c-1.36-1.46-2.97-2.5-4.83-3.1c-1.79-0.94-3.71-1.37-5.78-1.29
			c-2.07-0.08-3.99,0.35-5.78,1.29c-1.86,0.6-3.47,1.64-4.83,3.1c-2.62,2.86-4.57,6.61-4.39,10.61c0.18,1.33,0.36,2.66,0.54,3.99
			C344.06,221.58,345.34,223.79,347.2,225.66L347.2,225.66z"/>
	</g>
</g>
<g>
	<g>
		<path d="M377.7,187.39c13.74,0.48,27.5,0.1,41.19-1.12c2.07,0.08,3.99-0.35,5.78-1.29c1.86-0.6,3.47-1.64,4.83-3.1
			c2.6-2.6,4.56-6.87,4.39-10.61c-0.17-3.88-1.45-7.9-4.39-10.61c-2.78-2.55-6.69-4.74-10.61-4.39
			c-13.69,1.22-27.45,1.59-41.19,1.12c-3.76-0.13-7.98,1.77-10.61,4.39c-2.6,2.6-4.56,6.87-4.39,10.61
			c0.17,3.88,1.45,7.9,4.39,10.61C370.09,185.74,373.59,187.25,377.7,187.39L377.7,187.39z"/>
	</g>
</g>
<g>
	<g>
		<path d="M371.34,141.51c10.46-9.04,20.22-18.88,29.19-29.4c1.46-1.36,2.5-2.97,3.1-4.83c0.94-1.79,1.37-3.71,1.29-5.78
			c0-3.68-1.63-8.07-4.39-10.61c-2.86-2.62-6.61-4.57-10.61-4.39c-3.79,0.17-8.05,1.39-10.61,4.39
			c-8.97,10.53-18.73,20.36-29.19,29.4c-2.78,2.4-4.39,7.04-4.39,10.61c0,3.68,1.63,8.07,4.39,10.61c2.86,2.62,6.61,4.57,10.61,4.39
			c1.33-0.18,2.66-0.36,3.99-0.54C367.26,144.65,369.47,143.37,371.34,141.51L371.34,141.51z"/>
	</g>
</g>
<g>
	<g>
		<path d="M326.39,106.8c-2.27-7.13-3.91-14.43-4.91-21.85c0.18,1.33,0.36,2.66,0.54,3.99c-0.72-5.52-1.09-11.08-1.1-16.65
			c0-3.85-1.67-7.88-4.39-10.61c-2.6-2.6-6.87-4.56-10.61-4.39c-3.88,0.17-7.9,1.45-10.61,4.39c-2.69,2.93-4.4,6.54-4.39,10.61
			c0.01,7.8,0.82,15.53,2,23.23c1.01,6.53,2.53,12.96,4.54,19.25c1.18,3.69,3.51,6.98,6.89,8.96c3.22,1.88,7.95,2.68,11.56,1.51
			c3.63-1.17,7.13-3.42,8.96-6.89C326.72,114.86,327.63,110.67,326.39,106.8L326.39,106.8z"/>
	</g>
</g>
<g>
	<g>
		<path d="M266.39,132.07c-17.61-3.5-35.16-7.32-52.63-11.46c-3.87-0.92-8.08-0.52-11.56,1.51c-3.11,1.82-6.08,5.39-6.89,8.96
			c-0.87,3.84-0.69,8.15,1.51,11.56c2.08,3.22,5.13,5.99,8.96,6.89c17.47,4.14,35.02,7.96,52.63,11.46
			c3.99,0.79,7.96,0.6,11.56-1.51c3.11-1.82,6.08-5.39,6.89-8.96c0.87-3.84,0.69-8.15-1.51-11.56
			C273.32,135.82,270.19,132.83,266.39,132.07L266.39,132.07z"/>
	</g>
</g>
<g>
	<g>
		<path d="M254.91,180.93c-7.6,3.14-15.21,6.29-22.81,9.43c-1.95,0.46-3.65,1.36-5.1,2.68c-1.63,1.06-2.92,2.46-3.86,4.21
			c-1.88,3.22-2.68,7.95-1.51,11.56c1.17,3.63,3.42,7.13,6.89,8.96c1.19,0.5,2.39,1.01,3.58,1.51c2.66,0.71,5.32,0.71,7.98,0
			c7.6-3.14,15.21-6.29,22.81-9.43c1.95-0.46,3.65-1.36,5.1-2.68c1.63-1.06,2.92-2.46,3.86-4.21c1.88-3.22,2.68-7.95,1.51-11.56
			c-1.17-3.63-3.42-7.13-6.89-8.96c-1.19-0.5-2.39-1.01-3.58-1.51C260.23,180.22,257.57,180.22,254.91,180.93L254.91,180.93z"/>
	</g>
</g>
<g>
	<g>
		<path class="st2" d="M344.61,190.41c3.85,0,7.89-1.67,10.61-4.39c2.6-2.6,4.56-6.87,4.39-10.61c-0.17-3.88-1.45-7.9-4.39-10.61
			c-2.93-2.69-6.54-4.39-10.61-4.39c-3.85,0-7.89,1.67-10.61,4.39c-2.6,2.6-4.56,6.87-4.39,10.61c0.17,3.88,1.45,7.9,4.39,10.61
			C336.94,188.71,340.54,190.41,344.61,190.41L344.61,190.41z"/>
	</g>
</g>
<g>
	<g>
		<path class="st2" d="M310.54,151.64c3.21,0,6.57-1.39,8.84-3.66c2.17-2.17,3.8-5.73,3.66-8.84c-0.14-3.23-1.21-6.59-3.66-8.84
			c-2.45-2.25-5.45-3.66-8.84-3.66c-3.21,0-6.57,1.39-8.84,3.66c-2.17,2.17-3.8,5.73-3.66,8.84c0.14,3.23,1.21,6.59,3.66,8.84
			C304.15,150.23,307.15,151.64,310.54,151.64L310.54,151.64z"/>
	</g>
</g>
<g>
	<g>
		<path class="st2" d="M293.51,189.25c5.23,0,10.24-4.6,10-10c-0.24-5.42-4.39-10-10-10c-5.23,0-10.24,4.6-10,10
			C283.75,184.67,287.9,189.25,293.51,189.25L293.51,189.25z"/>
	</g>
</g>
<circle class="st1" cx="282.26" cy="373.05" r="43.28"/>
<g>
	<g>
		<path d="M248.83,346.86c-7.94-4.47-15.88-8.94-23.83-13.41c-2.28-1.29-5.16-1.71-7.71-1.01c-2.32,0.64-4.83,2.43-5.98,4.6
			c-2.5,4.73-1.28,10.94,3.59,13.68c7.94,4.47,15.88,8.94,23.83,13.41c2.28,1.29,5.16,1.71,7.71,1.01c2.32-0.64,4.83-2.43,5.98-4.6
			C254.92,355.81,253.7,349.6,248.83,346.86L248.83,346.86z"/>
	</g>
</g>
<g>
	<g>
		<path d="M240.64,384.26c-4.8,2.2-9.33,4.92-13.53,8.12c-1.17,0.63-2.1,1.49-2.81,2.58c-0.88,0.97-1.48,2.1-1.79,3.4
			c-0.42,1.33-0.48,2.66-0.18,3.99c0.06,1.33,0.46,2.57,1.19,3.72c1.38,2.14,3.43,4.01,5.98,4.6c0.89,0.12,1.77,0.24,2.66,0.36
			c1.81-0.01,3.49-0.46,5.05-1.37c4.2-3.2,8.74-5.92,13.53-8.12c1.17-0.63,2.1-1.49,2.81-2.58c0.88-0.97,1.48-2.1,1.79-3.4
			c0.42-1.33,0.48-2.66,0.18-3.99c-0.06-1.33-0.46-2.57-1.19-3.72c-1.38-2.14-3.43-4.01-5.98-4.6c-0.89-0.12-1.77-0.24-2.66-0.36
			C243.89,382.9,242.2,383.36,240.64,384.26L240.64,384.26z"/>
	</g>
</g>
<g>
	<g>
		<path d="M260.31,409.28c-2.35,8.7-4.15,17.53-5.42,26.45c-0.42,1.33-0.48,2.66-0.18,3.99c0.06,1.33,0.46,2.57,1.19,3.72
			c1.21,2.07,3.59,4.05,5.98,4.6c2.56,0.58,5.43,0.46,7.71-1.01c2.03-1.31,4.24-3.47,4.6-5.98c1.26-8.92,3.07-17.75,5.42-26.45
			c0.68-2.51,0.31-5.45-1.01-7.71c-1.21-2.07-3.59-4.05-5.98-4.6C267.34,401.09,261.76,403.87,260.31,409.28L260.31,409.28z"/>
	</g>
</g>
<g>
	<g>
		<path d="M290.31,412.33c4.22,8.02,9.03,15.71,14.41,23c1.6,2.17,3.28,3.85,5.98,4.6c2.39,0.66,5.58,0.36,7.71-1.01
			c2.14-1.38,4.01-3.43,4.6-5.98c0.56-2.46,0.56-5.58-1.01-7.71c-5.38-7.29-10.2-14.98-14.41-23c-2.44-4.64-9.28-6.42-13.68-3.59
			C289.17,401.69,287.7,407.37,290.31,412.33L290.31,412.33z"/>
	</g>
</g>
<g>
	<g>
		<path d="M319.04,389.14c5.84-0.46,11.71-0.31,17.52,0.44c-0.89-0.12-1.77-0.24-2.66-0.36c2.67,0.36,5.31,0.84,7.93,1.45
			c2.59,0.6,5.37,0.36,7.71-1.01c2.07-1.21,4.05-3.59,4.6-5.98c0.58-2.56,0.46-5.43-1.01-7.71c-1.38-2.14-3.43-4.01-5.98-4.6
			c-9.18-2.12-18.71-2.99-28.11-2.25c-2.69,0.21-5.11,0.97-7.07,2.93c-1.73,1.73-3.04,4.58-2.93,7.07c0.12,2.59,0.97,5.27,2.93,7.07
			C313.83,387.92,316.41,389.35,319.04,389.14L319.04,389.14z"/>
	</g>
</g>
<g>
	<g>
		<path d="M310.74,352.76c7.82-8.79,15.79-17.44,23.92-25.94c1.8-1.88,2.93-4.45,2.93-7.07c0-2.45-1.09-5.38-2.93-7.07
			c-3.92-3.6-10.28-4.04-14.14,0c-8.13,8.5-16.1,17.15-23.92,25.94c-1.77,1.99-2.93,4.35-2.93,7.07c0,2.45,1.09,5.38,2.93,7.07
			c1.91,1.75,4.41,3.05,7.07,2.93C306.23,355.57,308.98,354.74,310.74,352.76L310.74,352.76z"/>
	</g>
</g>
<g>
	<g>
		<path d="M282.59,330.06c-0.87-5.32-1.75-10.64-2.62-15.96c-0.31-1.3-0.91-2.43-1.79-3.4c-0.71-1.09-1.64-1.95-2.81-2.58
			c-2.14-1.25-5.3-1.79-7.71-1.01c-2.42,0.78-4.75,2.28-5.98,4.6c-0.34,0.8-0.67,1.59-1.01,2.39c-0.48,1.77-0.48,3.54,0,5.32
			c0.87,5.32,1.75,10.64,2.62,15.96c0.31,1.3,0.91,2.43,1.79,3.4c0.71,1.09,1.64,1.95,2.81,2.58c2.14,1.25,5.3,1.79,7.71,1.01
			c2.42-0.78,4.75-2.28,5.98-4.6c0.34-0.8,0.67-1.59,1.01-2.39C283.07,333.61,283.07,331.83,282.59,330.06L282.59,330.06z"/>
	</g>
</g>
<g>
	<g>
		<path class="st2" d="M272.95,400.37c5.23,0,10.24-4.6,10-10c-0.24-5.42-4.39-10-10-10c-5.23,0-10.24,4.6-10,10
			C263.19,395.79,267.34,400.37,272.95,400.37L272.95,400.37z"/>
	</g>
</g>
<g>
	<g>
		<path class="st2" d="M301.15,381.54c3.92,0,7.68-3.45,7.5-7.5c-0.18-4.06-3.3-7.5-7.5-7.5c-3.92,0-7.68,3.45-7.5,7.5
			C293.83,378.1,296.95,381.54,301.15,381.54L301.15,381.54z"/>
	</g>
</g>
<g>
	<g>
		<path class="st2" d="M278.1,362.2c2.62,0,5.12-2.3,5-5c-0.12-2.71-2.2-5-5-5c-2.62,0-5.12,2.3-5,5
			C273.22,359.91,275.29,362.2,278.1,362.2L278.1,362.2z"/>
	</g>
</g>
<circle class="st1" cx="133.12" cy="258.03" r="54.93"/>
<g>
	<g>
		<path d="M138.38,204.84c-0.59-11.55-1.17-23.1-1.76-34.65c-0.17-3.31-1.28-6.46-3.66-8.84c-2.17-2.17-5.73-3.8-8.84-3.66
			c-3.23,0.14-6.59,1.21-8.84,3.66c-2.18,2.37-3.83,5.52-3.66,8.84c0.59,11.55,1.17,23.1,1.76,34.65c0.17,3.31,1.28,6.46,3.66,8.84
			c2.17,2.17,5.73,3.8,8.84,3.66c3.23-0.14,6.59-1.21,8.84-3.66C136.9,211.31,138.55,208.16,138.38,204.84L138.38,204.84z"/>
	</g>
</g>
<g>
	<g>
		<path d="M93.35,221.44c-6.52-4.25-13.58-7.56-20.87-10.28c-1.66-0.52-3.32-0.6-4.98-0.22c-1.66,0.08-3.21,0.57-4.65,1.48
			c-2.59,1.52-5.07,4.49-5.74,7.47c-0.73,3.2-0.57,6.79,1.26,9.63c0.65,0.84,1.3,1.69,1.95,2.53c1.56,1.55,3.4,2.62,5.52,3.21
			c1.23,0.46,2.46,0.94,3.67,1.45c-1-0.42-1.99-0.84-2.99-1.26c4.95,2.1,9.7,4.63,14.21,7.56c1.43,0.91,2.98,1.41,4.65,1.48
			c1.66,0.37,3.32,0.3,4.98-0.22c2.9-0.8,6.04-3.04,7.47-5.74c1.53-2.9,2.3-6.42,1.26-9.63C98.06,225.73,96.18,223.29,93.35,221.44
			L93.35,221.44z"/>
	</g>
</g>
<g>
	<g>
		<path d="M80.21,260.7c-9.99,1.48-19.81,3.92-29.33,7.28c-3.1,1.09-5.77,2.84-7.47,5.74c-1.57,2.68-2.23,6.63-1.26,9.63
			c0.98,3.02,2.85,5.94,5.74,7.47c2.86,1.51,6.47,2.37,9.63,1.26c9.52-3.36,19.34-5.8,29.33-7.28c2.88-0.43,6.07-3.35,7.47-5.74
			c1.57-2.68,2.23-6.63,1.26-9.63c-0.98-3.02-2.85-5.94-5.74-7.47c-1-0.42-1.99-0.84-2.99-1.26
			C84.64,260.11,82.43,260.11,80.21,260.7L80.21,260.7z"/>
	</g>
</g>
<g>
	<g>
		<path d="M96.9,292.81c-6.29,10.9-11.6,22.32-16.17,34.04c-1.11,2.84-0.22,7.11,1.26,9.63c1.52,2.59,4.49,5.07,7.47,5.74
			c3.2,0.73,6.79,0.57,9.63-1.26c0.84-0.65,1.69-1.3,2.53-1.95c1.55-1.56,2.62-3.4,3.21-5.52c0.8-2.05,1.63-4.1,2.49-6.13
			c-0.42,1-0.84,1.99-1.26,2.99c3.63-8.55,7.78-16.88,12.42-24.93c1.63-2.82,2.13-6.49,1.26-9.63c-0.8-2.9-3.04-6.04-5.74-7.47
			c-2.9-1.53-6.42-2.3-9.63-1.26C101.28,288.07,98.56,289.94,96.9,292.81L96.9,292.81z"/>
	</g>
</g>
<g>
	<g>
		<path d="M140.72,307.92c5.17,6.9,9.47,14.41,12.83,22.35c-0.42-1-0.84-1.99-1.26-2.99c0.86,2.06,1.65,4.14,2.39,6.24
			c1.08,3.1,2.85,5.77,5.74,7.47c2.68,1.57,6.63,2.23,9.63,1.26c3.02-0.98,5.94-2.85,7.47-5.74c1.51-2.86,2.36-6.47,1.26-9.63
			c-3.93-11.27-9.31-22.01-16.48-31.58c-0.79-1.46-1.86-2.63-3.22-3.51c-1.21-1.1-2.62-1.85-4.25-2.24
			c-2.99-0.82-6.98-0.45-9.63,1.26c-2.67,1.72-5.02,4.28-5.74,7.47C138.76,301.35,138.74,305.29,140.72,307.92L140.72,307.92z"/>
	</g>
</g>
<g>
	<g>
		<path d="M170.08,275.2c14.86,1.4,29.69,3.08,44.49,5.02c2.93,0.39,6.85-1.68,8.84-3.66c2.17-2.17,3.8-5.73,3.66-8.84
			c-0.14-3.23-1.21-6.59-3.66-8.84c-0.84-0.65-1.69-1.3-2.53-1.95c-1.95-1.13-4.05-1.7-6.31-1.71c-14.8-1.94-29.63-3.62-44.49-5.02
			c-3.01-0.28-6.78,1.6-8.84,3.66c-2.17,2.17-3.8,5.73-3.66,8.84c0.14,3.23,1.21,6.59,3.66,8.84c0.84,0.65,1.69,1.3,2.53,1.95
			C165.72,274.63,167.82,275.2,170.08,275.2L170.08,275.2z"/>
	</g>
</g>
<g>
	<g>
		<path d="M178.92,229.54c5.11-4.54,10.23-9.09,15.34-13.63c1.22-1.13,2.08-2.47,2.58-4.02c0.78-1.49,1.14-3.1,1.08-4.82
			c0.06-1.72-0.29-3.33-1.08-4.82c-0.5-1.55-1.37-2.89-2.58-4.02c-2.38-2.19-5.51-3.81-8.84-3.66c-1.11,0.15-2.22,0.3-3.32,0.45
			c-2.12,0.59-3.96,1.67-5.52,3.21c-5.11,4.54-10.23,9.09-15.34,13.63c-1.22,1.13-2.08,2.47-2.58,4.02
			c-0.78,1.49-1.14,3.1-1.08,4.82c-0.06,1.72,0.29,3.33,1.08,4.82c0.5,1.55,1.37,2.89,2.58,4.02c2.38,2.19,5.51,3.81,8.84,3.66
			c1.11-0.15,2.22-0.3,3.32-0.45C175.52,232.16,177.36,231.09,178.92,229.54L178.92,229.54z"/>
	</g>
</g>
<g>
	<g>
		<path class="st2" d="M108.22,272.27c3.21,0,6.57-1.39,8.84-3.66c2.17-2.17,3.8-5.73,3.66-8.84c-0.14-3.23-1.21-6.59-3.66-8.84
			c-2.45-2.25-5.45-3.66-8.84-3.66c-3.21,0-6.57,1.39-8.84,3.66c-2.17,2.17-3.8,5.73-3.66,8.84c0.14,3.23,1.21,6.59,3.66,8.84
			C101.83,270.86,104.83,272.27,108.22,272.27L108.22,272.27z"/>
	</g>
</g>
<g>
	<path class="st2" d="M144.86,278.96"/>
	<g>
		<path class="st2" d="M144.86,286.46c3.92,0,7.68-3.45,7.5-7.5c-0.18-4.06-3.3-7.5-7.5-7.5c-3.92,0-7.68,3.45-7.5,7.5
			C137.55,283.03,140.66,286.46,144.86,286.46L144.86,286.46z"/>
	</g>
</g>
<g>
	<g>
		<path class="st2" d="M147.3,250.32c3.92,0,7.68-3.45,7.5-7.5c-0.18-4.06-3.3-7.5-7.5-7.5c-3.92,0-7.68,3.45-7.5,7.5
			C139.98,246.88,143.1,250.32,147.3,250.32L147.3,250.32z"/>
	</g>
</g>
<line class="st3" x1="87.04" y1="416.34" x2="422.98" y2="80.4"/>
</svg>
