<?xml version="1.0" encoding="utf-8"?>
<!-- Generator: Adobe Illustrator 27.5.0, SVG Export Plug-In . SVG Version: 6.00 Build 0)  -->
<svg version="1.1" id="Layer_1" xmlns="http://www.w3.org/2000/svg" xmlns:xlink="http://www.w3.org/1999/xlink" x="0px" y="0px"
	 viewBox="0 0 500 500" style="enable-background:new 0 0 500 500;" xml:space="preserve">
<style type="text/css">
	.st0{fill:#50AAFA;stroke:#000000;stroke-width:20;stroke-miterlimit:10;}
	.st1{display:none;fill:none;stroke:#231F20;stroke-width:20;stroke-miterlimit:10;}
	.st2{display:none;}
	.st3{display:inline;}
	.st4{fill:#231F20;}
	.st5{fill:none;stroke:#000000;stroke-width:20;stroke-miterlimit:10;}
	.st6{fill:#50AAFA;}
</style>
<circle class="st0" cx="250.7" cy="250.3" r="239.9"/>
<path class="st1" d="M401.4,356.4L228,431.1c-13.2,5.7-28.6-0.4-34.3-13.6L85,165.2c-5.7-13.2,0.4-28.6,13.6-34.3L272,56.2
	c13.2-5.7,28.6,0.4,34.3,13.6L415,322.1C420.7,335.4,414.6,350.7,401.4,356.4z"/>
<g class="st2">
	<g class="st3">
		<path class="st4" d="M316,112.9c-3.4,2.1-6.9,3.9-10.5,5.4c0.8-0.3,1.6-0.7,2.4-1c-7.2,3-14.7,5.1-22.3,7.2
			c-7.9,2.2-15.8,4.5-23.7,7c-16.8,5.4-33.2,11.7-49.3,18.8c-8.8,3.8-17.5,7.8-26.3,11.5c0.8-0.3,1.6-0.7,2.4-1
			c-21,8.8-42.8,15.4-64.4,22.4c-6.2,2.1-12.4,4.1-18.7,6.1c-2.5,0.8-4.6,2.3-6,4.6c-1.2,2.1-1.8,5.3-1,7.7c0.8,2.4,2.3,4.8,4.6,6
			c2.3,1.2,5.1,1.9,7.7,1c15.6-5.1,31.2-10.2,46.8-15.4c7.5-2.5,15-4.9,22.4-7.7c8.1-3,16-6.3,23.8-9.8c8.2-3.6,16.4-7.3,24.7-10.8
			c-0.8,0.3-1.6,0.7-2.4,1c12.9-5.4,26-10.3,39.4-14.7c6.7-2.2,13.4-4.2,20.1-6.1c6.2-1.7,12.4-3.3,18.5-5.3
			c7.5-2.5,15-5.5,21.8-9.7c2.2-1.4,3.9-3.5,4.6-6c0.7-2.4,0.4-5.6-1-7.7C326.8,112.1,320.7,110,316,112.9L316,112.9z"/>
	</g>
</g>
<g class="st2">
	<g class="st3">
		<path class="st4" d="M147.5,284.9c8.5-1.3,16.8-3.4,24.9-6.3c8.8-3.2,17.3-7.3,26-10.9c-0.8,0.3-1.6,0.7-2.4,1
			c10.1-4.2,20.6-7.5,31-11c10.5-3.5,21.1-7.1,31.6-10.7c20.9-7.2,41.7-14.5,62.4-22.1c11.8-4.3,23.5-8.6,35.2-13
			c2.5-0.9,4.6-2.2,6-4.6c1.2-2.1,1.8-5.3,1-7.7c-0.8-2.4-2.3-4.8-4.6-6c-2.3-1.2-5.2-1.9-7.7-1c-23,8.6-46,17-69.2,25.1
			c-23,8.1-46,16-69.1,23.6c-6.4,2.1-12.9,4.3-19.2,6.9c-6.9,2.8-13.6,5.9-20.4,8.8c0.8-0.3,1.6-0.7,2.4-1
			c-10.6,4.5-21.7,7.8-33.1,9.5c-2.3,0.3-4.9,2.7-6,4.6c-1.2,2.1-1.8,5.3-1,7.7c0.8,2.4,2.3,4.8,4.6,6c0.8,0.3,1.6,0.7,2.4,1
			C144,285.3,145.8,285.3,147.5,284.9L147.5,284.9z"/>
	</g>
</g>
<g class="st2">
	<g class="st3">
		<path class="st4" d="M181.1,361.6c12.3-2.8,24.6-5.6,36.6-9.8c12.8-4.4,24.7-10.7,36.8-16.6c6.2-3,12.5-5.9,18.8-8.6
			c-0.8,0.3-1.6,0.7-2.4,1c15.1-6.4,30.6-11.9,46.1-17.3c15.5-5.5,31-10.9,46.2-17.1c9.3-3.8,18.5-7.8,27.4-12.3
			c2.2-1.1,4-3.7,4.6-6c0.7-2.4,0.4-5.6-1-7.7c-3.1-4.8-8.7-6.1-13.7-3.6c-6.7,3.3-13.5,6.4-20.4,9.4c0.8-0.3,1.6-0.7,2.4-1
			c-18.1,7.6-36.7,14-55.2,20.5c-19.1,6.8-38.2,13.7-56.6,22.3c-10.4,4.8-20.4,10.5-31,15c0.8-0.3,1.6-0.7,2.4-1
			c-14.9,6.3-30.8,9.9-46.5,13.5c-5.1,1.2-8.6,7.3-7,12.3C170.6,359.9,175.6,362.8,181.1,361.6L181.1,361.6z"/>
	</g>
</g>
<g class="st2">
	<g class="st3">
		<path class="st4" d="M140.2,121.5c6.9,20.1,13.8,40.3,20.6,60.4c3.3,9.8,6.7,19.5,10.6,29.1c4.1,9.8,8.6,19.4,13.4,28.8
			c9.1,17.6,19.3,34.8,28.6,52.3c9.5,18,18,36.5,26.3,55.1c8.3,18.6,16.5,37.3,25.5,55.6c1.1,2.3,2.3,4.6,3.4,6.8
			c2.4,4.7,9.3,6.4,13.7,3.6c4.8-3.1,6.1-8.7,3.6-13.7c-12.9-25.5-24-51.9-35.8-77.9c-5.9-12.9-12-25.7-18.6-38.2
			c-6.5-12.4-13.5-24.6-20.3-36.9c-7.5-13.6-14.8-27.5-20.9-41.8c0.3,0.8,0.7,1.6,1,2.4c-4.8-11.4-8.7-23.1-12.7-34.9
			c-4.1-11.9-8.1-23.8-12.2-35.6c-2.3-6.8-4.7-13.7-7-20.5c-0.8-2.5-2.3-4.6-4.6-6c-2.1-1.2-5.3-1.8-7.7-1
			C142.3,110.8,138.4,116.2,140.2,121.5L140.2,121.5z"/>
	</g>
</g>
<g class="st2">
	<g class="st3">
		<path class="st4" d="M207.7,96c4.5,19.5,12.9,38.1,20.8,56.5c7.8,18.1,16,36.1,24.7,53.8c4.3,8.8,8.7,17.6,13.2,26.3
			c4.5,8.6,9.1,17.2,14.4,25.3c5.3,8.2,11,16.1,15.8,24.6c4.8,8.5,9,17.3,13.2,26.1c8.8,18.2,17.6,36.4,26.5,54.7
			c1.1,2.3,2.2,4.5,3.3,6.8c1,2.1,3.7,4,6,4.6c2.4,0.7,5.6,0.4,7.7-1c2.1-1.4,4-3.4,4.6-6c0.6-2.7,0.2-5.2-1-7.7
			c-7.4-15.2-14.7-30.5-22.1-45.7c-3.6-7.5-7.3-15-10.9-22.5c-3.5-7.2-7.1-14.5-11.1-21.4c-4.1-7-8.8-13.6-13.2-20.4
			c-4.5-6.8-8.6-13.9-12.4-21.1c-7.7-14.4-14.9-29-21.9-43.7c-7.9-16.6-15.4-33.5-22.6-50.4c0.3,0.8,0.7,1.6,1,2.4
			c-6.4-15.2-12.9-30.5-16.6-46.6c-1.2-5.1-7.3-8.6-12.3-7C209.4,85.4,206.4,90.6,207.7,96L207.7,96z"/>
	</g>
</g>
<path class="st5" d="M347.1,169.8c27,30.6,28,67.6,28,78.8c-0.5,7.3-1.1,18.3-1.4,31.7c-0.3,16,0.1,23.1,0,30.6
	c0,4.1-0.5,30.7-10.1,58.7c-9.1,26.6-16.6,48.7-35.3,54.7c-22.3,7.2-49.4-12.1-56.6-17.2c-7.4-5.3-7-6.6-19.1-15.6
	c-14.7-10.8-20.3-12.5-32.9-22.2c-6.2-4.8-11.1-9.4-20.7-18.5c-4.5-4.3-22.8-21.7-30.8-31.1c-15.4-18.1-27.4-47-26.7-75.4
	c1.1-42.6,29.1-84.3,70.6-102.5C257.6,121.9,314.1,132.3,347.1,169.8z"/>
<g>
	<path class="st6" d="M203.2,167.9c26.8,10.1,54.7,17.3,83,21.4c-7.7-9.6-17.3-17.8-28.1-23.8c-12.5-7-26.4-11.1-40.1-15.2
		c21.5-5.3,42-14.9,59.8-28.1c7.6-5.6,14.9-12.2,18.4-20.9c-31.9,0.2-63.8,10.6-89.6,29.4c-1.2,0.9-2.9,1.9-4.2,1.2
		c-0.8-0.4-1.2-1.1-1.7-1.9c-12.8-21.6-29.7-40.8-49.5-56.2c1.7,7.7,0.3,11.3,2.3,19.2s1.2,6,6.1,26.6c1.7,7.2,2.5,14.2,6.2,20.7
		c-32.6,9.1-59.2,22.2-87.2,41.2c18.5,0.3,37.1,0.6,55.5-0.8c8.3-0.6,18.8-2.4,26.6-6.7c4-2.2,9,0.1,9.9,4.6
		c3.6,18.2,5.7,36.9,10.4,54.8c0.4,1.7,1.7,3.2,3.3,3.8c3.7,1.3,6-2.5,7.2-5.7c5.5-14.8,8.1-30.7,7.6-46.5c-0.3-8.1,0-8.1,1.8-16"/>
	<g>
		<path d="M200.6,177.5c20.9,7.9,42.4,14,64.3,18.3c6.2,1.2,12.5,2.3,18.7,3.2c0.9,0.1,1.8,0.2,2.7,0.4c1.4,0.1,2.7-0.2,3.9-0.9
			c1.9-0.8,3.8-2.2,4.8-4.1c0.8-1.6,1.3-3.3,1.4-5.1c0.1-2.8-1.3-5-2.9-7.1c-6.8-8.5-15.1-15.8-24.1-21.7
			c-9.5-6.3-20.1-10.7-30.8-14.3c-5.9-2-11.8-3.8-17.7-5.5c0,6.4,0,12.9,0,19.3c13.2-3.3,25.9-8.1,38-14.2
			c11.8-5.9,23.3-13.3,33.2-22.1c3.1-2.8,5.7-5.8,8.2-9.1c2.5-3.3,4.2-6.8,5.8-10.7c1.2-2.9,0-6.4-1.8-8.7c-1.9-2.5-4.7-4-7.9-3.9
			c-27.1,0.2-54.1,7.2-77.9,20.2c-3.1,1.7-6.2,3.5-9.2,5.5c-1.6,1-3.1,2-4.6,3.1c-1.5,1-2.9,2.2-4.5,3c0.8-0.3,1.6-0.7,2.4-1
			c-0.4,0.2-0.7,0.3-1.1,0.3c0.9-0.1,1.8-0.2,2.7-0.4c-0.2,0-0.5,0.1-0.7,0c0.9,0.1,1.8,0.2,2.7,0.4c-0.2,0-0.5-0.1-0.7-0.2
			c0.8,0.3,1.6,0.7,2.4,1c-0.1-0.1-0.2-0.1-0.3-0.2c0.7,0.5,1.4,1,2,1.6c-0.3-0.2-0.5-0.5-0.8-0.8c0.5,0.7,1,1.3,1.6,2
			c-1.4-2-2.6-4.3-4-6.4c-1.3-2.1-2.6-4.1-4-6.1c-3.2-4.7-6.7-9.2-10.2-13.7c-6.2-7.8-13.1-15.1-20.4-21.9
			c-4.2-3.9-8.6-7.6-13.1-11.1c-0.7-0.5-1.4-1-2-1.6c-1.1-0.7-2.4-1.1-3.7-1.2c-2.1-0.3-4.5,0-6.4,1.2c-3.9,2.5-5.6,6.8-4.6,11.3
			c0.2,1.2,0.5,2.3,0.6,3.5c-0.1-0.9-0.2-1.8-0.4-2.7c0.3,2.7,0.4,5.3,0.5,8c0.2,3.5,0.7,7.1,1.6,10.5c0.5,1.9,0.9,3.8,1.4,5.8
			c1.5,7.1,3.2,14.2,4.8,21.3c1.8,7.7,3.1,15.4,7,22.4c2-4.9,4-9.8,6-14.7c-25,7-48.9,17.3-71.2,30.5c-6.2,3.7-12.4,7.6-18.4,11.7
			c-3.6,2.4-6,6.9-4.6,11.3c1.4,4.2,5.1,7.3,9.6,7.3c11.9,0.2,23.8,0.4,35.7,0.2c11.5-0.2,23.2-0.6,34.5-2.9
			c2.7-0.6,5.4-1.3,8.1-2.2c3.3-1.1,6.4-2.7,9.5-4.1c-0.8,0.3-1.6,0.7-2.4,1c0.6-0.2,1.2-0.4,1.8-0.5c-0.9,0.1-1.8,0.2-2.7,0.4
			c0.6-0.1,1.2-0.1,1.8,0c-0.9-0.1-1.8-0.2-2.7-0.4c0.6,0.1,1.2,0.3,1.7,0.5c-0.8-0.3-1.6-0.7-2.4-1c0.6,0.2,1.1,0.6,1.5,0.9
			c-0.7-0.5-1.4-1-2-1.6c0.4,0.3,0.7,0.7,1.1,1.1c-0.5-0.7-1-1.4-1.6-2c0.4,0.5,0.7,1,0.9,1.6c-0.3-0.8-0.7-1.6-1-2.4
			c0.8,2,1,4.3,1.4,6.4c0.4,2.4,0.9,4.7,1.3,7.1c0.8,4.7,1.6,9.3,2.4,14c1.6,9.4,3.2,18.8,5.6,28c2.1,7.9,10,13.5,18.3,11.3
			c6.4-1.7,9.8-7.6,11.9-13.4c3.4-9.5,5.5-19.3,6.8-29.3c0.6-5.1,1-10.3,1-15.4c0-4-0.4-8,0.1-11.9c-0.1,0.9-0.2,1.8-0.4,2.7
			c0.4-2.6,1.1-5.2,1.7-7.8c0.6-2.6,0.4-5.4-1-7.7c-1.2-2.1-3.6-4.1-6-4.6c-2.6-0.6-5.4-0.5-7.7,1c-2.1,1.4-4,3.4-4.6,6
			c-1.3,5.6-2.4,10.9-2.2,16.7c0.2,7.4,0,14.7-1,22.1c0.1-0.9,0.2-1.8,0.4-2.7c-1.2,9.2-3.3,18.7-6.9,27.3c0.3-0.8,0.7-1.6,1-2.4
			c-0.4,1-1,2-1.6,2.9c0.5-0.7,1-1.4,1.6-2c-0.4,0.5-0.8,0.9-1.3,1.3c0.7-0.5,1.4-1,2-1.6c-0.3,0.2-0.7,0.4-1,0.6
			c0.8-0.3,1.6-0.7,2.4-1c-0.3,0.1-0.6,0.2-0.9,0.2c0.9-0.1,1.8-0.2,2.7-0.4c-0.3,0-0.6,0-0.9,0c0.9,0.1,1.8,0.2,2.7,0.4
			c-0.5-0.1-0.9-0.2-1.3-0.4c0.8,0.3,1.6,0.7,2.4,1c-0.4-0.2-0.8-0.4-1.2-0.7c0.7,0.5,1.4,1,2,1.6c-0.3-0.2-0.5-0.5-0.7-0.7
			c0.5,0.7,1,1.4,1.6,2c-0.4-0.5-0.6-0.9-0.9-1.5c0.3,0.8,0.7,1.6,1,2.4c-0.9-2.4-1.3-5.1-1.9-7.6c-0.6-2.7-1.2-5.5-1.7-8.2
			c-1.1-5.4-2-10.9-2.9-16.4c-0.9-5.4-1.8-10.8-2.8-16.1c-0.5-2.5-0.8-5.2-1.5-7.7c-1.2-4-3.7-7.1-7.1-9.4c-2.7-1.9-6.6-2.9-9.9-2.6
			c-2.9,0.2-4.9,0.8-7.5,2.1c-1.2,0.6-2.4,1.2-3.6,1.7c0.8-0.3,1.6-0.7,2.4-1c-5.5,2.3-11.4,3.6-17.2,4.4c0.9-0.1,1.8-0.2,2.7-0.4
			c-9.8,1.3-19.9,1.5-29.8,1.6c-10.5,0.1-21-0.1-31.5-0.2c1.7,6.2,3.4,12.4,5.1,18.6c13.2-8.9,26.8-17.1,41.2-24
			c4-1.9,7.9-3.7,12-5.4c-0.8,0.3-1.6,0.7-2.4,1c11.1-4.7,22.5-8.6,34.1-11.9c6.3-1.8,9.1-9,6-14.7c-0.6-1-1.1-2.1-1.6-3.2
			c0.3,0.8,0.7,1.6,1,2.4c-2-4.8-2.9-9.8-4-14.8c-1-4.5-2.1-9-3.1-13.6c-0.9-3.8-1.6-7.6-2.5-11.4c-0.6-2.9-1.5-5.7-1.9-8.6
			c0.1,0.9,0.2,1.8,0.4,2.7c-0.3-2.4-0.4-4.8-0.5-7.2c-0.2-3.4-0.6-6.9-1.3-10.3c-5.6,3.2-11.1,6.5-16.7,9.7
			c13.4,10.4,25.5,22.6,35.9,36c-0.5-0.7-1-1.3-1.6-2c2.8,3.6,5.4,7.3,8,11.1c1.3,1.9,2.5,3.8,3.7,5.8c1.5,2.4,2.8,5.2,4.9,7
			c2.5,2.1,5.3,3.4,8.6,3.3c2.6-0.1,5.2-0.9,7.4-2.3c1.9-1.2,3.7-2.6,5.6-3.9c3.8-2.6,7.7-4.9,11.8-7.1c4.5-2.5,9.2-4.7,13.9-6.7
			c-0.8,0.3-1.6,0.7-2.4,1c12.7-5.3,26-9,39.7-10.8c-0.9,0.1-1.8,0.2-2.7,0.4c6.4-0.8,12.8-1.3,19.3-1.3c-3.2-4.2-6.4-8.4-9.6-12.7
			c-0.1,0.2-0.2,0.5-0.3,0.7c0.3-0.8,0.7-1.6,1-2.4c-1.2,2.7-2.7,5.2-4.5,7.5c0.5-0.7,1-1.3,1.6-2c-3.3,4.3-7.4,7.9-11.6,11.2
			c0.7-0.5,1.4-1,2-1.6c-11.3,8.7-23.8,15.8-36.9,21.3c0.8-0.3,1.6-0.7,2.4-1c-8.1,3.4-16.4,6.1-24.9,8.3c-4.1,1-7.5,5.4-7.3,9.6
			c0.2,4.5,3,8.4,7.3,9.6c9.8,2.9,19.6,5.8,29.1,9.8c-0.8-0.3-1.6-0.7-2.4-1c8.1,3.4,15.8,7.8,22.8,13.1c-0.7-0.5-1.4-1-2-1.6
			c6.1,4.7,11.6,10.1,16.4,16.1c3.2-5.6,6.5-11.1,9.7-16.7c-22.1-3.2-43.9-8.3-65.1-15.1c-6-1.9-12-4.1-17.9-6.3
			c-2.3-0.9-5.7-0.2-7.7,1c-2.1,1.2-4.1,3.6-4.6,6c-0.6,2.6-0.5,5.4,1,7.7C196.1,175.2,198,176.6,200.6,177.5L200.6,177.5z"/>
	</g>
</g>
</svg>
