<?xml version="1.0" encoding="utf-8"?>
<!-- Generator: Adobe Illustrator 27.5.0, SVG Export Plug-In . SVG Version: 6.00 Build 0)  -->
<svg version="1.1" id="Layer_1" xmlns="http://www.w3.org/2000/svg" xmlns:xlink="http://www.w3.org/1999/xlink" x="0px" y="0px"
	 viewBox="0 0 500 500" style="enable-background:new 0 0 500 500;" xml:space="preserve">
<style type="text/css">
	.st0{fill:#50AAFA;stroke:#000000;stroke-width:20;stroke-miterlimit:10;}
	.st1{fill:none;stroke:#000000;stroke-width:20;stroke-miterlimit:10;}
	.st2{fill:none;stroke:#000000;stroke-width:19;stroke-linecap:round;stroke-miterlimit:10;}
	.st3{fill:none;stroke:#000000;stroke-width:20;stroke-linecap:round;stroke-miterlimit:10;}
	.st4{stroke:#000000;stroke-width:3;stroke-miterlimit:10;}
</style>
<circle class="st0" cx="250.8" cy="249.6" r="239.8"/>
<path class="st1" d="M280.5,407H129c-0.8,0-1.5-0.7-1.5-1.5V147.9c0-0.8,0.7-1.5,1.5-1.5h151.5c0.8,0,1.5,0.7,1.5,1.5v257.6
	C282,406.3,281.3,407,280.5,407z"/>
<line class="st2" x1="263" y1="407.3" x2="373" y2="408"/>
<line class="st3" x1="373" y1="408" x2="373" y2="152"/>
<line class="st2" x1="262.6" y1="145.6" x2="373" y2="146.8"/>
<line class="st3" x1="281.5" y1="149.4" x2="335" y2="104"/>
<line class="st3" x1="372.8" y1="146.9" x2="335" y2="104"/>
<line class="st3" x1="127.5" y1="147.9" x2="163" y2="104"/>
<line class="st3" x1="330" y1="104" x2="163" y2="104"/>
<line class="st3" x1="333" y1="104" x2="333" y2="71"/>
<line class="st3" x1="163" y1="104" x2="163" y2="71"/>
<line class="st3" x1="163" y1="71" x2="333" y2="71"/>
<g>
	<g>
		<path class="st4" d="M180.1,262.2c-0.3-5.6-0.7-12.4-0.6-17.4h-0.2c-1.4,4.7-3.1,9.8-5.1,15.3l-7.1,19.6h-3.9l-6.6-19.3
			c-1.9-5.7-3.5-10.9-4.6-15.7h-0.1c-0.1,5-0.4,11.8-0.8,17.8l-1.1,17.4h-5l2.8-40.4h6.7l6.9,19.6c1.7,5,3,9.4,4.1,13.6h0.2
			c1.1-4.1,2.5-8.6,4.3-13.6l7.2-19.6h6.7l2.5,40.4h-5.1L180.1,262.2z"/>
		<path class="st4" d="M199.5,239.6V280h-5.2v-40.4H199.5z"/>
		<path class="st4" d="M208.6,239.6h5.2v36h17.3v4.4h-22.5V239.6z"/>
		<path class="st4" d="M236.9,239.6h5.2v19.5h0.2c1.1-1.6,2.2-3,3.2-4.3l12.4-15.2h6.5l-14.6,17.2l15.8,23.2h-6.2L246,260.2
			l-3.9,4.4V280h-5.2L236.9,239.6L236.9,239.6z"/>
	</g>
</g>
</svg>
