<?xml version="1.0" encoding="utf-8"?>
<!-- Generator: Adobe Illustrator 27.5.0, SVG Export Plug-In . SVG Version: 6.00 Build 0)  -->
<svg version="1.1" id="Layer_1" xmlns="http://www.w3.org/2000/svg" xmlns:xlink="http://www.w3.org/1999/xlink" x="0px" y="0px"
	 viewBox="0 0 500 500" style="enable-background:new 0 0 500 500;" xml:space="preserve">
<style type="text/css">
	.st0{fill:#50AAFA;stroke:#000000;stroke-width:20;stroke-miterlimit:10;}
	.st1{fill:none;stroke:#000000;stroke-width:20;stroke-miterlimit:10;}
	.st2{stroke:#000000;stroke-width:20;stroke-miterlimit:10;}
</style>
<circle class="st0" cx="249.8" cy="249.6" r="239.8"/>
<path class="st1" d="M371.7,91.4l20.8,18.2c22.6,19.8,24.9,54.1,5.1,76.6l-191,218.2c-19.8,22.6-54.1,24.9-76.6,5.1l-20.8-18.2
	c-22.6-19.8-24.8-54.1,5.4-88.2l191-218.2C314.8,73.9,349.1,71.7,371.7,91.4z"/>
<path class="st2" d="M312.5,82.5l94.4,82.6c1.2,1.1,1.3,2.9,0.3,4.1l-95.8,109.4c-1,1.2-2.9,1.3-4.1,0.3L213,196.2
	c-1.2-1.1-1.3-2.9-0.3-4.1l95.8-109.4C309.5,81.5,311.3,81.4,312.5,82.5z"/>
<g>
	<g>
		<path d="M332.5,103.5c11,6.1,22.1,12.2,32.1,19.9c-0.8-0.7-1.7-1.3-2.5-1.9c4.8,3.8,9.3,7.9,13.7,12.2c4.6,4.5,9.2,8.9,13.8,13.4
			c2.3,2.2,5.6,3.7,8.8,3.7c3.1,0,6.7-1.4,8.8-3.7c2.2-2.4,3.8-5.5,3.7-8.8c-0.1-3.3-1.2-6.5-3.7-8.8c-7.3-7.1-14.5-14.5-22.2-21.2
			c-7.9-6.9-16.6-12.9-25.7-18.2c-4.7-2.8-9.5-5.4-14.3-8c-2.9-1.6-6.4-2.2-9.6-1.3c-2.9,0.8-6,3-7.5,5.7c-1.5,2.9-2.3,6.4-1.3,9.6
			C327.7,99.1,329.6,101.9,332.5,103.5L332.5,103.5z"/>
	</g>
</g>
</svg>
