<?xml version="1.0" encoding="utf-8"?>
<!-- Generator: Adobe Illustrator 27.5.0, SVG Export Plug-In . SVG Version: 6.00 Build 0)  -->
<svg version="1.1" id="Layer_1" xmlns="http://www.w3.org/2000/svg" xmlns:xlink="http://www.w3.org/1999/xlink" x="0px" y="0px"
	 viewBox="0 0 500 500" style="enable-background:new 0 0 500 500;" xml:space="preserve">
<style type="text/css">
	.st0{fill:#50AAFA;stroke:#000000;stroke-width:20;stroke-miterlimit:10;}
	.st1{fill:none;stroke:#000000;stroke-width:20;stroke-linecap:round;stroke-miterlimit:10;}
</style>
<circle class="st0" cx="249.8" cy="250" r="239.8"/>
<line class="st1" x1="249.8" y1="212" x2="249.8" y2="406"/>
<path class="st1" d="M249.8,399.3c1.9,26.4-19.9,48-43.8,47c-22.6-1-41.9-22-40-47"/>
<path class="st1" d="M84.2,251.9c14.2-24,31.5-44.8,49.4-43.2c24.8,2.3,31.5,45.9,55.7,46.8c24.9,0.9,34.2-44.3,59.4-43.6
	c24.9,0.7,31.1,45.3,55.4,46c26,0.8,36.1-49.4,63.2-50.6c11.6-0.5,28.6,8,50.6,50.5"/>
<path class="st1" d="M83,260.1c13-103.2,79.1-180.6,156.5-187c84.9-7,163.8,73.2,178.5,186.9"/>
<line class="st1" x1="250" y1="72.7" x2="249.8" y2="51"/>
</svg>
